<?xml version="1.0" encoding="UTF-8"?>
<svg id="Layer_2" data-name="Layer 2" xmlns="http://www.w3.org/2000/svg" viewBox="0 0 750 317.13">
  <defs>
    <style>
      .cls-1 {
        fill: #be1e2d;
      }

      .cls-2 {
        fill: #273043;
      }
    </style>
  </defs>
  <g id="Layer_1-2" data-name="Layer 1">
    <g>
      <polygon class="cls-2" points="310.74 0 310.74 44.4 349.12 44.4 349.12 317.13 395.79 317.13 395.79 44.4 434.16 44.4 434.16 0 310.74 0"/>
      <path class="cls-2" d="M160.31,275.31c-74.93,0-114.13-42.26-114.13-116.3,0-50.44,17.95-86.07,52.41-103.98,13.82-7.18,29.27-10.63,44.85-10.63h149.64V0h-132.78c-43.24,0-80.2,12.08-107.71,34.61C19.41,61.8,0,104.22,0,159.01c0,99.32,64.03,158.12,160.31,158.12,72.3,0,130.69-31.36,152.46-102.8h-47.92c-15.67,38.77-50.52,60.98-104.54,60.98Z"/>
      <polygon class="cls-2" points="750 317.13 697.45 317.13 655.33 226.98 520.91 226.98 540.98 183.48 636.3 183.48 615.56 138.91 665.98 138.91 750 317.13"/>
      <polygon class="cls-1" points="657.66 121.26 607.35 121.26 578.76 59.81 521.7 183.48 501.64 226.98 460.05 317.13 408.86 317.13 537.83 44.4 451.82 44.4 451.82 0 600.5 0 621.43 44.4 657.66 121.26"/>
    </g>
  </g>
</svg>